<svg width="40cm" height="17cm" viewBox="-80 -1 800 340" xmlns="http://www.w3.org/2000/svg"><path fill="none" d="M-80 0h800v340H-80z"/><path d="M257.778 20h124.444C400 20 400 20 400 30v40c0 10 0 10-17.778 10H257.778C240 80 240 80 240 70V30c0-10 0-10 17.778-10z" fill="#ffffc4"/><path d="M257.778 20h124.444C400 20 400 20 400 30v40c0 10 0 10-17.778 10H257.778C240 80 240 80 240 70V30c0-10 0-10 17.778-10" fill="none" stroke-width="2" stroke="#000"/><path d="M257.778 20h124.444C400 20 400 20 400 30v40c0 10 0 10-17.778 10H257.778C240 80 240 80 240 70V30c0-10 0-10 17.778-10m0 60h124.444M400 30v40M240 30v40m17.778-50h124.444" fill="none" stroke-width=".2" stroke="#000"/><text font-size="27.093" x="320" y="60.16" text-anchor="middle" font-family="sans-serif" font-weight="400"><tspan x="320" y="60.16">entity</tspan></text><path d="M257.778 140h124.444C400 140 400 140 400 150v40c0 10 0 10-17.778 10H257.778C240 200 240 200 240 190v-40c0-10 0-10 17.778-10z" fill="#ffffc4"/><path d="M257.778 140h124.444C400 140 400 140 400 150v40c0 10 0 10-17.778 10H257.778C240 200 240 200 240 190v-40c0-10 0-10 17.778-10" fill="none" stroke-width="2" stroke="#000"/><path d="M257.778 140h124.444C400 140 400 140 400 150v40c0 10 0 10-17.778 10H257.778C240 200 240 200 240 190v-40c0-10 0-10 17.778-10m0 60h124.444M400 150v40m-160-40v40m17.778-50h124.444" fill="none" stroke-width=".2" stroke="#000"/><text font-size="27.093" x="320" y="180.16" text-anchor="middle" font-family="sans-serif" font-weight="400"><tspan x="320" y="180.16">location</tspan></text><path d="M57.778 140h124.444C200 140 200 140 200 150v40c0 10 0 10-17.778 10H57.778C40 200 40 200 40 190v-40c0-10 0-10 17.778-10z" fill="#ffffc4"/><path d="M57.778 140h124.444C200 140 200 140 200 150v40c0 10 0 10-17.778 10H57.778C40 200 40 200 40 190v-40c0-10 0-10 17.778-10" fill="none" stroke-width="2" stroke="#000"/><path d="M57.778 140h124.444C200 140 200 140 200 150v40c0 10 0 10-17.778 10H57.778C40 200 40 200 40 190v-40c0-10 0-10 17.778-10m0 60h124.444M200 150v40M40 150v40m17.778-50h124.444" fill="none" stroke-width=".2" stroke="#000"/><text font-size="27.093" x="120" y="180.16" text-anchor="middle" font-family="sans-serif" font-weight="400"><tspan x="120" y="180.16">thing</tspan></text><path fill="none" stroke-width="2" stroke="#000" d="M320 80l-200 60m200-60v60"/><path d="M457.778 140h124.444C600 140 600 140 600 150v40c0 10 0 10-17.778 10H457.778C440 200 440 200 440 190v-40c0-10 0-10 17.778-10z" fill="#f7f7f7"/><path d="M457.778 140h124.444C600 140 600 140 600 150v40c0 10 0 10-17.778 10H457.778C440 200 440 200 440 190v-40c0-10 0-10 17.778-10" fill="none" stroke-width="2" stroke="#000"/><path d="M457.778 140h124.444C600 140 600 140 600 150v40c0 10 0 10-17.778 10H457.778C440 200 440 200 440 190v-40c0-10 0-10 17.778-10m0 60h124.444M600 150v40m-160-40v40m17.778-50h124.444" fill="none" stroke-width=".2" stroke="#000"/><text font-size="27.093" x="520" y="180.16" text-anchor="middle" font-family="sans-serif" font-weight="400"><tspan x="520" y="180.16">literal</tspan></text><path d="M357.778 260h124.444C500 260 500 260 500 270v40c0 10 0 10-17.778 10H357.778C340 320 340 320 340 310v-40c0-10 0-10 17.778-10z" fill="#f7f7f7"/><path d="M357.778 260h124.444C500 260 500 260 500 270v40c0 10 0 10-17.778 10H357.778C340 320 340 320 340 310v-40c0-10 0-10 17.778-10" fill="none" stroke-width="2" stroke="#000"/><path d="M357.778 260h124.444C500 260 500 260 500 270v40c0 10 0 10-17.778 10H357.778C340 320 340 320 340 310v-40c0-10 0-10 17.778-10m0 60h124.444M500 270v40m-160-40v40m17.778-50h124.444" fill="none" stroke-width=".2" stroke="#000"/><text font-size="27.093" x="420" y="300.16" text-anchor="middle" font-family="sans-serif" font-weight="400"><tspan x="420" y="300.16">string</tspan></text><path d="M557.778 260h124.444C700 260 700 260 700 270v40c0 10 0 10-17.778 10H557.778C540 320 540 320 540 310v-40c0-10 0-10 17.778-10z" fill="#f7f7f7"/><path d="M557.778 260h124.444C700 260 700 260 700 270v40c0 10 0 10-17.778 10H557.778C540 320 540 320 540 310v-40c0-10 0-10 17.778-10" fill="none" stroke-width="2" stroke="#000"/><path d="M557.778 260h124.444C700 260 700 260 700 270v40c0 10 0 10-17.778 10H557.778C540 320 540 320 540 310v-40c0-10 0-10 17.778-10m0 60h124.444M700 270v40m-160-40v40m17.778-50h124.444" fill="none" stroke-width=".2" stroke="#000"/><text font-size="27.093" x="620" y="300.16" text-anchor="middle" font-family="sans-serif" font-weight="400"><tspan x="620" y="300.16">integer</tspan></text><path fill="none" stroke-width="2" stroke="#000" d="M320 80l200 60m0 60l100 60m-200 0l100-60"/><path d="M157.778 260h124.444C300 260 300 260 300 270v40c0 10 0 10-17.778 10H157.778C140 320 140 320 140 310v-40c0-10 0-10 17.778-10z" fill="#ffffc4"/><path d="M157.778 260h124.444C300 260 300 260 300 270v40c0 10 0 10-17.778 10H157.778C140 320 140 320 140 310v-40c0-10 0-10 17.778-10" fill="none" stroke-width="2" stroke="#000"/><path d="M157.778 260h124.444C300 260 300 260 300 270v40c0 10 0 10-17.778 10H157.778C140 320 140 320 140 310v-40c0-10 0-10 17.778-10m0 60h124.444M300 270v40m-160-40v40m17.778-50h124.444" fill="none" stroke-width=".2" stroke="#000"/><text font-size="27.093" x="220" y="300.16" text-anchor="middle" font-family="sans-serif" font-weight="400"><tspan x="220" y="300.16">actor</tspan></text><path d="M-42.222 260H82.222C100 260 100 260 100 270v40c0 10 0 10-17.778 10H-42.222C-60 320-60 320-60 310v-40c0-10 0-10 17.778-10z" fill="#ffffc4"/><path d="M-42.222 260H82.222C100 260 100 260 100 270v40c0 10 0 10-17.778 10H-42.222C-60 320-60 320-60 310v-40c0-10 0-10 17.778-10" fill="none" stroke-width="2" stroke="#000"/><path d="M-42.222 260H82.222C100 260 100 260 100 270v40c0 10 0 10-17.778 10H-42.222C-60 320-60 320-60 310v-40c0-10 0-10 17.778-10m0 60H82.222M100 270v40m-160-40v40m17.778-50H82.222" fill="none" stroke-width=".2" stroke="#000"/><text font-size="27.093" x="20" y="300.16" text-anchor="middle" font-family="sans-serif" font-weight="400"><tspan x="20" y="300.16">object</tspan></text><path fill="none" stroke-width="2" stroke="#000" d="M120 200l100 60m-200 0l100-60"/></svg>